<svg width="60" height="60" viewBox="0 0 60 60" xmlns="http://www.w3.org/2000/svg">
  <g fill="#000" fill-rule="evenodd">
    <path d="M14.5 27c1.4 0 2.5-1.1 2.5-2.5S15.9 22 14.5 22 12 23.1 12 24.5 13.1 27 14.5 27zM18.5 22c1.4 0 2.5-1.1 2.5-2.5S19.9 17 18.5 17 16 18.1 16 19.5 17.1 22 18.5 22zM22.5 23c1.4 0 2.5-1.1 2.5-2.5S23.9 18 22.5 18 20 19.1 20 20.5 21.1 23 22.5 23zM20 27.5c0-1.4-1.1-2.5-2.5-2.5S15 26.1 15 27.5 16.1 30 17.5 30 20 28.9 20 27.5z"/>
    <path d="M44.5 27c1.4 0 2.5-1.1 2.5-2.5S45.9 22 44.5 22 42 23.1 42 24.5 43.1 27 44.5 27zM48.5 22c1.4 0 2.5-1.1 2.5-2.5S49.9 17 48.5 17 46 18.1 46 19.5 47.1 22 48.5 22zM52.5 23c1.4 0 2.5-1.1 2.5-2.5S53.9 18 52.5 18 50 19.1 50 20.5 51.1 23 52.5 23zM50 27.5c0-1.4-1.1-2.5-2.5-2.5S45 26.1 45 27.5 46.1 30 47.5 30 50 28.9 50 27.5z"/>
  </g>
</svg> 