<?xml version="1.0" encoding="UTF-8"?>
<svg width="200" height="200" viewBox="0 0 200 200" fill="none" xmlns="http://www.w3.org/2000/svg">
  <g opacity="0.15">
    <!-- Paw 1 -->
    <g transform="translate(20, 30) rotate(-15)">
      <circle cx="15" cy="20" r="6" fill="currentColor"/>
      <circle cx="12" cy="11" r="3" fill="currentColor"/>
      <circle cx="18" cy="11" r="3" fill="currentColor"/>
      <circle cx="10" cy="16" r="3" fill="currentColor"/>
      <circle cx="20" cy="16" r="3" fill="currentColor"/>
    </g>
    
    <!-- Paw 2 -->
    <g transform="translate(100, 20) rotate(25)">
      <circle cx="15" cy="20" r="6" fill="currentColor"/>
      <circle cx="12" cy="11" r="3" fill="currentColor"/>
      <circle cx="18" cy="11" r="3" fill="currentColor"/>
      <circle cx="10" cy="16" r="3" fill="currentColor"/>
      <circle cx="20" cy="16" r="3" fill="currentColor"/>
    </g>
    
    <!-- Paw 3 -->
    <g transform="translate(160, 50) rotate(-20)">
      <circle cx="15" cy="20" r="6" fill="currentColor"/>
      <circle cx="12" cy="11" r="3" fill="currentColor"/>
      <circle cx="18" cy="11" r="3" fill="currentColor"/>
      <circle cx="10" cy="16" r="3" fill="currentColor"/>
      <circle cx="20" cy="16" r="3" fill="currentColor"/>
    </g>
    
    <!-- Paw 4 -->
    <g transform="translate(40, 120) rotate(15)">
      <circle cx="15" cy="20" r="6" fill="currentColor"/>
      <circle cx="12" cy="11" r="3" fill="currentColor"/>
      <circle cx="18" cy="11" r="3" fill="currentColor"/>
      <circle cx="10" cy="16" r="3" fill="currentColor"/>
      <circle cx="20" cy="16" r="3" fill="currentColor"/>
    </g>
    
    <!-- Paw 5 -->
    <g transform="translate(140, 140) rotate(-10)">
      <circle cx="15" cy="20" r="6" fill="currentColor"/>
      <circle cx="12" cy="11" r="3" fill="currentColor"/>
      <circle cx="18" cy="11" r="3" fill="currentColor"/>
      <circle cx="10" cy="16" r="3" fill="currentColor"/>
      <circle cx="20" cy="16" r="3" fill="currentColor"/>
    </g>
  </g>
</svg> 